# xmcd CD database file
#
# Track frame offsets:
#	150
#	18077
#	41237
#	63365
#	92385
#
# Disc length: 2010 seconds
#
# Revision: 2
# Processed by: cddbd v1.4b41PL1 Copyright (c) Steve Scherf et al.
# Submitted via: Feurio! 1.51.5ß - http://www.feurio.com
#
DISCID=3207d805
DTITLE=Various Artist - Gemischtes 2
DYEAR=1900
DGENRE=
TTITLE0=Sidney Youngblood - If Only I Could
TTITLE1=Rick Astley - Cry For Help
TTITLE2=Kim Appleby - Don´t Worry
TTITLE3=Sting - Desert Rose
TTITLE4=Queen - You Don´t Fool Me
EXTD=
EXTT0=
EXTT1=
EXTT2=
EXTT3=
EXTT4=
PLAYORDER=
